<svg width="81" height="78" viewBox="0 0 81 78" fill="none" xmlns="http://www.w3.org/2000/svg"><path d="M80.2839 29.9189C79.8642 29.4365 79.1088 29.3736 78.6262 29.814L63.3501 43.1736C62.9724 43.5092 62.8465 44.0125 63.0354 44.4739C64.0636 47.1794 63.6859 50.2414 62.0911 52.5903L59.1744 50.0107C58.0413 49.004 56.4675 50.7657 57.6006 51.7724L64.3993 57.8335C65.4904 58.7982 65.5744 60.518 64.5881 61.6086C63.6439 62.6572 62.0072 62.7411 60.958 61.7973C59.1534 60.1615 57.3488 58.5046 55.5233 56.8688C54.3901 55.8411 52.8164 57.5818 53.9285 58.6095L58.9646 63.1815C59.8668 64.1882 59.8668 65.7402 58.9646 66.7469C58.0203 67.7955 56.3836 67.8794 55.3344 66.9356C53.5088 65.3417 51.7462 63.6639 49.9836 62.0071C48.8715 60.9584 47.2557 62.6992 48.3678 63.7268L52.3337 67.397C53.3829 68.3827 53.5508 70.1025 52.5646 71.1931C51.6203 72.2417 49.9836 72.3256 48.9344 71.3818C47.4026 69.9767 45.8288 68.6344 44.339 67.2083C43.2479 66.1596 41.6111 67.8584 42.7023 68.9071L44.9056 71.0253C45.9547 72.053 46.1646 73.6888 45.1364 74.8214C44.1921 75.87 42.5554 75.9539 41.5062 75.0101C41.4433 74.9472 40.9816 74.5068 40.499 74.0454C41.5692 72.2417 41.3174 69.9137 39.7226 68.215C38.8833 67.3131 37.7292 66.7469 36.5121 66.663C36.9108 65.0481 36.5331 63.2444 35.3161 61.9651C34.4138 61.0004 33.1757 60.4341 31.8538 60.3922C32.2315 58.7982 31.8328 57.0365 30.6367 55.7782C29.4407 54.4988 27.6571 53.9536 25.9574 54.3101C25.9154 53.1356 25.4748 51.9402 24.6145 51.0384C22.7259 49.025 19.5154 48.9411 17.543 50.8706C16.7666 48.8992 16.7246 46.6761 17.4381 44.6627C17.6059 44.2223 17.48 43.7189 17.1233 43.4043L1.97318 29.6253C1.49056 29.1849 0.735154 29.2268 0.315483 29.7092C-0.125172 30.1916 -0.0832051 30.9466 0.399417 31.366L14.983 44.6207C14.2486 47.2423 14.5214 50.1156 15.7174 52.5484L14.4374 53.7229C12.465 55.5265 12.5279 58.8612 14.3115 60.7487C15.2138 61.7134 16.4309 62.2587 17.7318 62.3007C17.3751 63.8736 17.7948 65.6144 18.9699 66.8517C20.145 68.0891 21.9705 68.6554 23.6282 68.2989C23.6492 69.5153 24.0899 70.7317 24.9922 71.6755C26.1672 72.9128 27.9928 73.4791 29.6715 73.1226C29.6925 74.318 30.1541 75.5344 31.0354 76.4572C32.9239 78.4496 36.1554 78.5125 38.1069 76.583L38.9252 75.8071C39.6807 76.5411 39.8695 76.7089 39.9115 76.7718C41.8839 78.5335 45.0734 78.3867 46.878 76.4153C47.5705 75.6603 47.9901 74.7165 48.137 73.7308C50.1095 74.9052 52.7324 74.5697 54.3272 72.808C55.1036 71.9481 55.5442 70.8785 55.6072 69.746C57.3908 70.2913 59.4052 69.8089 60.7482 68.3408C61.6504 67.3341 62.0911 66.0548 62.0282 64.7754C63.5809 64.9852 65.2177 64.4399 66.3508 63.2025C68.1763 61.1891 68.0085 57.8964 65.9731 56.0928L63.8537 54.2052C65.8681 51.4159 66.4767 47.7666 65.4904 44.453L80.1789 31.5967C80.6616 31.1563 80.7245 30.4013 80.2839 29.9189ZM16.0112 59.1758C15.025 58.1481 15.0459 56.4913 16.0322 55.4846C17.0604 54.5408 18.0886 53.5761 19.1377 52.6323C20.1869 51.6675 21.8656 51.5837 22.8938 52.6742C23.7751 53.618 23.8381 55.0651 23.1036 56.0718C21.9915 57.1204 20.8794 58.1691 19.7463 59.1967C18.6971 60.1615 17.0604 60.2663 16.0112 59.1758ZM22.5371 66.0967C21.8236 66.0967 21.1731 65.8031 20.6905 65.2788C19.7043 64.2511 19.7253 62.5943 20.7325 61.5876C22.2223 60.1824 23.7751 58.7982 25.223 57.3511C26.2512 56.3235 27.9508 56.3654 28.9371 57.435C29.9023 58.4837 29.8813 60.1405 28.8951 61.1472L24.4046 65.3417C23.922 65.7821 23.2295 66.0967 22.5371 66.0967ZM28.5594 70.9204C27.8459 70.9204 27.1954 70.6268 26.7128 70.1025C25.7266 69.0748 25.7476 67.418 26.7338 66.4113L29.8394 63.559C30.8885 62.5943 32.5672 62.5104 33.5954 63.601C34.6866 64.7964 34.4557 66.5581 33.2807 67.5438C32.5043 68.0891 31.8328 68.8232 31.1613 69.4524C30.4059 70.1654 29.7135 70.9414 28.5594 70.9204ZM36.4492 74.9472C35.421 75.9748 33.7423 75.9329 32.7561 74.8843C31.8118 73.8986 31.7908 72.3466 32.6721 71.3189L34.7495 69.4104C35.7777 68.7603 37.2046 68.991 38.0229 69.8508C39.0511 70.9414 39.0931 72.3675 38.1279 73.3533C38.1279 73.3533 38.1279 73.3533 38.1069 73.3742L36.4492 74.9472C36.4702 74.9262 36.4492 74.9262 36.4492 74.9472Z" fill="#338E4F"></path><path d="M0.37842 2.04644L29.5666 28.5559C29.9443 28.8914 30.4898 28.9543 30.9305 28.7236C33.1128 27.5072 35.6938 27.3395 38.002 28.1574C35.379 30.4224 32.1266 32.6036 30.0702 35.4349C29.1889 36.6303 31.0564 38.0984 31.9797 36.8191C33.9102 34.1765 37.0157 32.2261 39.4288 30.0449C42.0518 27.675 46.0177 27.1717 49.1442 28.8075C49.5849 29.0382 50.1095 28.9753 50.4872 28.6398L80.1789 2.29811C80.6616 1.85769 80.7035 1.12364 80.2839 0.641273C79.8432 0.158902 79.1088 0.116957 78.6262 0.53641L49.48 26.3957C46.5423 25.1373 43.1429 25.2212 40.2892 26.6264C37.2885 24.9905 33.6584 24.8647 30.5318 26.2698L1.97317 0.30571C1.49055 -0.134715 0.756124 -0.0927699 0.315469 0.389601C-0.125186 0.871972 -0.104203 1.60601 0.37842 2.04644Z" fill="#CBCBCB"></path><path d="M30.343 41.5798C30.4059 40.0488 28.0558 39.944 27.9928 41.475L27.72 47.3683C27.6151 50.0738 29.7135 52.4017 32.3994 52.5695C35.1272 52.7373 37.5193 50.5142 37.6243 47.7877L38.0649 41.3491C38.5266 40.9297 41.821 37.7209 42.0098 37.8887L52.3757 47.1166C53.5088 48.1233 55.1036 46.3826 53.9495 45.3549L42.7652 35.33C42.3246 34.9315 41.6321 34.9315 41.1915 35.33L36.1344 39.902C35.9036 40.1118 35.7777 40.3844 35.7567 40.699L35.2951 47.6409C35.1902 49.0461 34.0361 50.2835 32.5672 50.1996C31.1613 50.1157 30.0492 48.8783 30.1121 47.4522L30.343 41.5798Z" fill="#338E4F"></path></svg>
