<svg width="81" height="78" viewBox="0 0 81 78" fill="none" xmlns="http://www.w3.org/2000/svg"><path d="M61.0359 23.583C60.4266 23.7658 60.1016 24.4158 60.2844 25.0048C60.8937 26.9548 61.1984 29.0064 61.1984 31.0783C61.1984 37.9439 57.8063 44.3423 52.0984 48.1814C48.8484 50.3751 46.7766 53.9501 46.4516 57.8705H44.4813V46.3533L49.6812 41.3158C50.1281 40.8689 50.1484 40.158 49.7016 39.7111C49.2547 39.2642 48.5437 39.2439 48.0969 39.6908L47.2641 40.5033L45.5984 39.8736C45.3344 39.772 45.05 39.772 44.8062 39.8736L42.8969 40.5845L40.9875 39.8736C40.7234 39.772 40.4391 39.772 40.1953 39.8736L38.2859 40.5845L36.3766 39.8736C36.1125 39.772 35.8281 39.772 35.5844 39.8736L33.9187 40.5033L33.0859 39.6908C32.6391 39.2439 31.9078 39.2642 31.4812 39.7111C31.0344 40.158 31.0547 40.8892 31.5016 41.3158L36.7016 46.3533V57.8705H34.7313C34.3859 53.9705 32.2937 50.3751 28.9828 48.1205C23.4375 44.3423 20.0656 38.0658 19.9844 31.3626C19.8828 25.797 22.0359 20.5158 26.0172 16.5345C29.9984 12.533 35.2797 10.3798 40.8656 10.4611C48.0562 10.5626 54.5562 14.3001 58.2531 20.4751C58.5781 21.0236 59.2891 21.1861 59.8172 20.8611C60.3656 20.5361 60.5281 19.8455 60.2031 19.297C58.2328 16.0064 55.4297 13.2642 52.1391 11.3142C48.7469 9.32358 44.8469 8.22671 40.8859 8.18608C34.6906 8.10483 28.8406 10.5017 24.4125 14.9298C19.9844 19.358 17.5875 25.208 17.6687 31.4033C17.7703 38.8376 21.5078 45.8048 27.6625 50.0095C30.3437 51.8376 32.05 54.722 32.3953 57.8705H29.5312C28.2109 57.8705 27.1141 58.947 27.1141 60.2876V62.7455C27.1141 64.0658 28.1906 65.1626 29.5312 65.1626H30.0594C30.0594 65.2033 30.0594 65.2439 30.0594 65.2845V67.7423C30.0594 69.0626 31.1359 70.1392 32.4562 70.1595C32.4969 71.1548 32.7 72.1298 33.0859 73.0439C33.3297 73.633 34 73.897 34.5891 73.6533C35.1781 73.4095 35.4422 72.7392 35.1984 72.1501C34.9344 71.5205 34.7719 70.8298 34.7516 70.1392H46.4109C46.2688 73.247 43.7094 75.7251 40.5812 75.7251C39.7484 75.7251 38.9562 75.5626 38.2047 75.2173C37.6359 74.9533 36.9453 75.2173 36.7016 75.7861C36.4375 76.3548 36.7016 77.0251 37.2703 77.2892C38.3062 77.7564 39.4234 78.0001 40.5812 78.0001C44.9687 78.0001 48.5437 74.5064 48.6859 70.1392C50.0062 70.1392 51.0828 69.0626 51.0828 67.722V65.2642C51.0828 65.2236 51.0828 65.183 51.0828 65.1423H51.6109C52.9312 65.1423 54.0281 64.0658 54.0281 62.7251V60.2673C54.0281 58.947 52.9516 57.8501 51.6109 57.8501H48.7469C49.0719 54.6814 50.7578 51.8173 53.3781 50.0501C59.6953 45.7845 63.4734 38.6751 63.4734 31.058C63.4734 28.7626 63.1281 26.4876 62.4578 24.3142C62.2953 23.7455 61.6453 23.4001 61.0359 23.583ZM35.7062 42.2501L35.9703 42.1486L37.8797 42.8595C38.1438 42.9611 38.4281 42.9611 38.6719 42.8595L40.5812 42.1486L42.4906 42.8595C42.7547 42.9611 43.0391 42.9611 43.2828 42.8595L45.1922 42.1486L45.4562 42.2501L42.5516 45.0533C42.3281 45.2767 42.2062 45.5611 42.2062 45.8658V57.8705H38.9562V45.8658C38.9562 45.5611 38.8344 45.2564 38.6109 45.0533L35.7062 42.2501ZM48.7875 67.7423C48.7875 67.8033 48.7266 67.8642 48.6656 67.8642H32.4766C32.3953 67.8642 32.3547 67.8033 32.3547 67.7423V65.2845C32.3547 65.2236 32.4156 65.1626 32.4766 65.1626H48.6656C48.7469 65.1626 48.7875 65.2236 48.7875 65.2845V67.7423ZM51.6109 60.1658C51.6719 60.1658 51.7328 60.2267 51.7328 60.2876V62.7455C51.7328 62.8267 51.6719 62.8673 51.6109 62.8673H29.5516C29.4906 62.8673 29.4297 62.8064 29.4297 62.7455V60.2876C29.4297 60.2267 29.4906 60.1658 29.5516 60.1658H51.6109Z" fill="#338E4F"></path><path d="M40.5813 4.75312C41.2109 4.75312 41.7188 4.24531 41.7188 3.61562V1.1375C41.7188 0.507812 41.2109 0 40.5813 0C39.9516 0 39.4438 0.507812 39.4438 1.1375V3.61562C39.4438 4.24531 39.9516 4.75312 40.5813 4.75312Z" fill="#CBCBCB"></path><path d="M25.1031 8.06399C25.3062 8.42962 25.6922 8.63274 26.0984 8.63274C26.3016 8.63274 26.4844 8.59211 26.6672 8.47024C27.2156 8.14524 27.3984 7.45461 27.0938 6.90618L25.8547 4.77336C25.5297 4.22493 24.8391 4.04211 24.2906 4.3468C23.7422 4.6718 23.5594 5.36243 23.8641 5.91086L25.1031 8.06399Z" fill="#CBCBCB"></path><path d="M16.0641 17.1031L13.9312 15.864C13.3828 15.539 12.6922 15.7422 12.3672 16.2906C12.0422 16.839 12.2453 17.5297 12.7937 17.8547L14.9266 19.0937C15.1094 19.1953 15.2922 19.2562 15.4953 19.2562C15.8812 19.2562 16.2672 19.0531 16.4906 18.6875C16.7953 18.1187 16.6125 17.4281 16.0641 17.1031Z" fill="#CBCBCB"></path><path d="M68.3688 47.3078L66.2359 46.0688C65.6875 45.7438 64.9969 45.9469 64.6719 46.4953C64.3469 47.0438 64.55 47.7344 65.0984 48.0594L67.2313 49.2984C67.4141 49.4 67.6172 49.4609 67.8 49.4609C68.1859 49.4609 68.5719 49.2578 68.7953 48.8922C69.1 48.3234 68.9172 47.6125 68.3688 47.3078Z" fill="#CBCBCB"></path><path d="M12.7531 32.5812C12.7531 31.9515 12.2453 31.4437 11.6156 31.4437H9.1375C8.50781 31.4437 8 31.9515 8 32.5812C8 33.2109 8.50781 33.7187 9.1375 33.7187H11.6156C12.2453 33.7187 12.7531 33.2109 12.7531 32.5812Z" fill="#CBCBCB"></path><path d="M72.0047 31.4437H69.5469C68.9172 31.4437 68.4094 31.9515 68.4094 32.5812C68.4094 33.2109 68.9172 33.7187 69.5469 33.7187H72.025C72.6547 33.7187 73.1625 33.2109 73.1625 32.5812C73.1422 31.9515 72.6344 31.4437 72.0047 31.4437Z" fill="#CBCBCB"></path><path d="M14.9266 46.0687L12.7937 47.3078C12.2453 47.6328 12.0625 48.3234 12.3672 48.8718C12.5703 49.2375 12.9562 49.4406 13.3625 49.4406C13.5656 49.4406 13.7484 49.4 13.9312 49.2781L16.0641 48.039C16.6125 47.714 16.7953 47.0234 16.4906 46.475C16.1656 45.9468 15.4547 45.764 14.9266 46.0687Z" fill="#CBCBCB"></path><path d="M65.6672 19.236C65.8703 19.236 66.0531 19.1954 66.2359 19.0735L68.3688 17.8344C68.9172 17.5094 69.1 16.8188 68.7953 16.2704C68.4703 15.7219 67.7797 15.5391 67.2313 15.8438L65.0984 17.0829C64.55 17.4079 64.3672 18.0985 64.6719 18.6469C64.875 19.0329 65.2609 19.236 65.6672 19.236Z" fill="#CBCBCB"></path><path d="M54.4953 8.47036C54.6781 8.57192 54.8813 8.63286 55.0641 8.63286C55.45 8.63286 55.8359 8.42974 56.0594 8.06411L57.2984 5.9313C57.6234 5.38286 57.4203 4.69224 56.8719 4.36724C56.3234 4.04224 55.6328 4.24536 55.3078 4.7938L54.0687 6.92661C53.7641 7.47505 53.9469 8.16567 54.4953 8.47036Z" fill="#CBCBCB"></path></svg>
