<svg width="20" height="18" viewBox="0 0 20 18" fill="none" xmlns="http://www.w3.org/2000/svg"><path d="M4.94 2.00002C4.93974 2.53046 4.72877 3.03906 4.35351 3.41394C3.97825 3.78883 3.46944 3.99929 2.939 3.99902C2.40857 3.99876 1.89997 3.78779 1.52508 3.41253C1.1502 3.03727 0.939737 2.52846 0.940003 1.99802C0.940268 1.46759 1.15124 0.958988 1.5265 0.584103C1.90176 0.209218 2.41057 -0.00124153 2.941 -0.000976312C3.47144 -0.000711096 3.98004 0.210257 4.35492 0.585517C4.72981 0.960777 4.94027 1.46959 4.94 2.00002ZM5 5.48002H1V18H5V5.48002ZM11.32 5.48002H7.34V18H11.28V11.43C11.28 7.77002 16.05 7.43002 16.05 11.43V18H20V10.07C20 3.90002 12.94 4.13002 11.28 7.16002L11.32 5.48002Z" fill="white"></path></svg>
