<svg width="81" height="78" viewBox="0 0 81 78" fill="none" xmlns="http://www.w3.org/2000/svg"><g clip-path="url(#clip0)"><path d="M17.6766 66.0442C17.4445 65.8524 17.1914 65.6606 16.9594 65.4475C15.7781 64.4458 14.2594 66.2786 15.4195 67.2803C15.6727 67.4934 15.9258 67.7065 16.1789 67.9196C17.3602 68.8786 18.9 67.0458 17.6766 66.0442Z" fill="#CBCBCB"></path><path d="M3.18519 39.49C3.83909 39.49 4.36644 38.9572 4.36644 38.2965C4.36644 37.9982 4.36644 37.6785 4.38753 37.3588C4.42972 35.8031 2.04612 35.7391 2.02503 37.2949C2.02503 37.6146 2.00394 37.9555 2.00394 38.2965C2.00394 38.9359 2.53128 39.49 3.18519 39.49Z" fill="#CBCBCB"></path><path d="M42.8414 2.51459C43.4743 2.55721 44.1071 2.62114 44.7188 2.68508C46.1954 2.85557 46.4907 0.468685 44.993 0.298193C44.3391 0.212947 43.6641 0.170324 42.9891 0.127701C41.4703 0.021144 41.3227 2.42934 42.8414 2.51459Z" fill="#CBCBCB"></path><path d="M17.3602 10.4424C17.6133 10.4424 17.8664 10.3572 18.0985 10.1867C18.5836 9.80306 19.111 9.41945 19.6172 9.05716C20.8828 8.16208 19.5117 6.20142 18.2672 7.0965C17.7188 7.48011 17.1703 7.88503 16.643 8.31126C15.7992 8.92929 16.2633 10.4424 17.3602 10.4424Z" fill="#CBCBCB"></path><path d="M23.0977 6.71295C23.2875 6.71295 23.4774 6.67032 23.6461 6.58508C24.1946 6.28672 24.7641 6.00967 25.3336 5.75393C26.7258 5.11459 25.7555 2.9195 24.3422 3.55885C23.7305 3.8359 23.1188 4.13426 22.5282 4.45393C21.5578 4.96541 21.8321 6.71295 23.0977 6.71295Z" fill="#CBCBCB"></path><path d="M49.3805 3.5376C49.9922 3.68678 50.6039 3.85727 51.1946 4.04907C52.6078 4.4753 53.3461 2.19497 51.8907 1.74743C51.2578 1.55563 50.6039 1.36383 49.95 1.21465C48.4735 0.83104 47.9039 3.1753 49.3805 3.5376Z" fill="#CBCBCB"></path><path d="M29.4258 4.11298C30.1641 4.00642 30.8602 3.70806 31.5985 3.55888C33.0961 3.17528 32.5055 0.852325 31.0289 1.23593C30.375 1.40642 29.7211 1.57691 29.0883 1.79003C27.7805 2.15232 28.118 4.11298 29.4258 4.11298Z" fill="#CBCBCB"></path><path d="M75.811 30.6884C75.9375 31.3064 76.0641 31.9458 76.1696 32.5638C76.4016 34.0769 78.7641 33.7146 78.511 32.1802C78.4055 31.5196 78.2789 30.8376 78.1313 30.1769C77.8149 28.6638 75.4735 29.1753 75.811 30.6884Z" fill="#CBCBCB"></path><path d="M71.6344 20.1178C72.4782 21.5244 74.4399 20.1604 73.6805 18.8817C73.343 18.3063 72.9633 17.7309 72.6047 17.1555C71.7399 15.8768 69.7782 17.2195 70.643 18.4981C70.9805 19.0309 71.318 19.5637 71.6344 20.1178Z" fill="#CBCBCB"></path><path d="M73.7859 24.3588C74.0391 24.9342 74.2711 25.531 74.482 26.1277C75.0727 27.7474 77.2031 26.6392 76.718 25.2965C76.486 24.6572 76.2328 24.0179 75.9797 23.3998C75.368 21.972 73.1953 22.931 73.7859 24.3588Z" fill="#CBCBCB"></path><path d="M11.5805 14.8539C12.15 15.2801 12.7196 15.2588 13.268 14.7473C13.6899 14.2785 14.1117 13.8096 14.5547 13.3621C15.6305 12.2539 13.943 10.5703 12.8672 11.6785C12.4031 12.1686 11.9391 12.6588 11.4961 13.1703C11.0531 13.6391 11.0953 14.4064 11.5805 14.8539Z" fill="#CBCBCB"></path><path d="M55.6243 5.73259C56.1938 5.98833 56.7633 6.26538 57.3328 6.56374C58.6406 7.24571 59.8219 5.15718 58.4297 4.43259C57.8391 4.11292 57.2274 3.81456 56.6157 3.53751C55.2235 2.89817 54.2321 5.09325 55.6243 5.73259Z" fill="#CBCBCB"></path><path d="M67.7321 14.726C68.7656 15.8982 70.5164 14.2785 69.5039 13.1277C69.061 12.6162 68.5969 12.126 68.1328 11.6359C67.0571 10.5277 65.3696 12.2113 66.4453 13.3195C66.8883 13.7883 67.3102 14.2572 67.7321 14.726Z" fill="#CBCBCB"></path><path d="M61.3828 9.03584C61.8891 9.39813 62.4164 9.78174 62.9016 10.1653C64.0828 11.103 65.6016 9.22764 64.3571 8.26862C63.8297 7.8637 63.2813 7.43747 62.7328 7.05387C61.4883 6.1801 60.1172 8.14075 61.3828 9.03584Z" fill="#CBCBCB"></path><path d="M36.0914 2.70642C36.7664 2.64248 37.4414 2.55724 38.1164 2.53593C39.6563 2.42937 39.4875 0.0424853 37.9688 0.149043C37.2938 0.191666 36.6188 0.2556 35.9649 0.319534C34.5094 0.490026 34.6571 2.70642 36.0914 2.70642Z" fill="#CBCBCB"></path><path d="M3.45941 33.5867C4.05003 33.6933 4.72503 33.1818 4.8305 32.5851C4.93597 31.9671 5.04144 31.3277 5.1891 30.7097C5.5266 29.1966 3.18519 28.6851 2.86878 30.1982C2.72113 30.8589 2.59457 31.5408 2.4891 32.2015C2.38363 32.8835 2.8266 33.4802 3.45941 33.5867Z" fill="#CBCBCB"></path><path d="M4.97815 26.8736C5.58987 27.0868 6.09612 26.8523 6.4969 26.1491C6.70784 25.5523 6.93987 24.9556 7.193 24.3802C7.80472 22.9523 5.61097 22.0146 4.99925 23.4425C4.72503 24.0605 4.493 24.6999 4.26097 25.3392C4.05003 25.9359 4.36643 26.6392 4.97815 26.8736Z" fill="#CBCBCB"></path><path d="M7.72035 20.5441C8.31097 20.8638 8.85941 20.7359 9.34457 20.1392C9.66097 19.5851 9.99847 19.0523 10.3571 18.5195C11.2219 17.2409 9.2391 15.8982 8.39535 17.1769C8.01566 17.731 7.65707 18.3064 7.31957 18.9032C6.98207 19.4572 7.15082 20.2032 7.72035 20.5441Z" fill="#CBCBCB"></path><path d="M76.6125 37.3588C76.6125 37.6785 76.6336 37.9769 76.6336 38.2965C76.6758 39.8736 78.9539 39.8736 79.0172 38.2965C79.0172 37.9769 79.0172 37.6359 78.9961 37.2949C78.9539 35.7392 76.5703 35.8031 76.6125 37.3588Z" fill="#CBCBCB"></path><path d="M63.893 65.5966C63.661 65.7884 63.4078 66.0015 63.1758 66.1933C61.9524 67.1737 63.4078 68.9425 64.6524 68.0687C64.9055 67.8556 65.1586 67.6638 65.4117 67.4507C66.593 66.4491 65.0742 64.595 63.893 65.5966Z" fill="#CBCBCB"></path><path d="M47.6297 73.4179C47.0391 73.5458 46.4274 73.631 45.8367 73.7376C44.3391 73.9507 44.7188 76.3375 46.1742 76.1244C46.8071 76.0392 47.461 75.9113 48.0727 75.8048C49.6125 75.4638 49.1485 73.1195 47.6297 73.4179Z" fill="#CBCBCB"></path><path d="M53.7469 71.6277C53.1774 71.8408 52.6078 72.0539 52.0383 72.2457C50.5407 72.7359 51.3844 74.9949 52.7766 74.5261C53.3883 74.313 54 74.0998 54.5906 73.8654C56.025 73.3113 55.1813 71.0736 53.7469 71.6277Z" fill="#CBCBCB"></path><path d="M59.4422 68.7932C58.936 69.1129 58.3875 69.4113 57.8602 69.7096C56.468 70.4768 57.6914 72.5227 58.9782 71.8195C59.5477 71.5211 60.1172 71.1801 60.6657 70.8391C61.9946 70.0506 60.75 67.9834 59.4422 68.7932Z" fill="#CBCBCB"></path><path d="M28.793 72.1817C28.2235 71.9899 27.6539 71.7768 27.0844 71.5424C25.65 70.967 24.7852 73.2047 26.2196 73.7801C26.8102 74.0145 27.4219 74.2489 28.0336 74.4407C29.4258 74.9522 30.2696 72.6932 28.793 72.1817Z" fill="#CBCBCB"></path><path d="M41.3227 74.0998C40.711 74.1211 40.0992 74.1211 39.5086 74.0998C37.9688 74.0572 37.9055 76.4654 39.4453 76.508C40.0782 76.5293 40.7321 76.5293 41.386 76.508C42.9047 76.4654 42.8625 74.0572 41.3227 74.0998Z" fill="#CBCBCB"></path><path d="M22.9711 69.6244C22.4438 69.326 21.9164 69.0276 21.3891 68.708C20.0813 67.8981 18.8367 69.944 20.1446 70.7539C20.693 71.0948 21.2625 71.4145 21.811 71.7342C23.1188 72.4375 24.3633 70.3916 22.9711 69.6244Z" fill="#CBCBCB"></path><path d="M34.9735 73.6949C34.3828 73.6097 33.7711 73.5031 33.1805 73.3753C31.6828 73.0769 31.1977 75.4212 32.7164 75.7195C33.3493 75.8474 33.9821 75.9539 34.6149 76.0605C36.0914 76.2949 36.45 73.9294 34.9735 73.6949Z" fill="#CBCBCB"></path><path d="M69.3773 56.7524L76.275 50.8065L78.9117 53.9393C79.3336 54.4507 80.093 54.4933 80.5781 54.0671C81.0844 53.6409 81.1477 52.8737 80.7047 52.3835L72.6469 43.0278L65.5594 28.4081C65.1164 27.513 64.4203 26.7671 63.5555 26.2983L53.3883 19.6065C52.0805 18.754 50.182 18.8819 48.8742 19.6278L43.3055 22.7819C42.2719 23.3573 41.5125 24.3163 41.1328 25.4458L40.4156 27.6409L39.6984 25.4458C39.3187 24.3163 38.5594 23.3786 37.5258 22.7819L31.9781 19.6065C30.6703 18.8606 28.7719 18.7327 27.4641 19.5851L24.0469 21.8442C22.7602 22.6966 24.068 24.6999 25.3547 23.8474L28.7086 21.631C29.3836 21.3114 30.1641 21.3327 30.818 21.695L36.3867 24.8491C36.893 25.1261 37.2727 25.595 37.4625 26.1704L39.2133 31.5409C39.3609 31.9884 38.6859 32.8622 38.3063 32.2229L36.5133 29.2179C36.1125 28.5573 35.4586 28.0671 34.7203 27.8966L30.9023 26.9589C30.1008 26.7671 28.6453 27.0655 28.118 27.8327C28.0758 27.9392 22.8445 35.6327 22.8023 35.7392C21.832 37.4229 21.832 39.5114 22.8023 41.195L25.6922 46.2032C26.3672 47.3753 27.4641 48.2491 28.7508 48.6327C32.2313 49.613 35.0367 50.4015 37.4414 53.3852C37.9477 54.0032 38.4961 54.5999 39.0023 55.1966C39.3398 55.6442 38.7914 56.4327 38.2641 56.0704L34.7203 53.4491C34.657 53.4065 34.5727 53.3638 34.4883 53.3212C34.2984 53.236 33.2648 52.7458 33.0961 52.7245L22.4438 50.5933C22.2539 50.5507 22.0641 50.572 21.8953 50.6147L16.0945 52.277C14.7656 52.6606 13.6477 53.513 12.9094 54.6852L6.30703 48.995L10.1039 44.477C10.1672 44.3917 10.2305 44.3278 10.2727 44.2212L17.4445 29.4737C17.7398 28.9835 18.0984 28.6212 18.5625 28.3655L20.1867 27.2999C21.4734 26.4474 20.1656 24.4442 18.8789 25.2966L17.318 26.3409C16.4531 26.8097 15.7359 27.5556 15.3141 28.4294L8.20547 43.0491L0.295314 52.3622C-0.696092 53.5343 1.09688 55.1114 2.10938 53.9179L4.7461 50.7852L11.6438 56.7311L0.168751 76.0606C-0.168749 76.636 0.0210952 77.3606 0.569533 77.7015C1.11797 78.0425 1.85625 77.872 2.19375 77.2966L13.7742 57.7966C14.407 56.5606 15.293 54.9835 16.7063 54.5786L22.2328 53.0015L32.4844 55.0474L33.3914 55.4524L36.8508 58.0097C37.9055 58.7983 39.4031 58.713 40.3945 57.9032C41.3859 58.713 42.8625 58.8196 43.9383 58.0097L47.5031 55.3671C47.7141 55.2179 47.9461 55.1114 48.1781 55.0688L58.5563 53.0015L64.0828 54.5786C65.243 54.8983 66.1922 56.177 66.8039 57.1786L78.743 77.2966C78.975 77.6802 79.3547 77.872 79.7555 77.872C80.6414 77.8933 81.2531 76.8278 80.768 76.0606L69.3773 56.7524ZM64.7578 52.277C64.4836 52.2556 58.493 50.3376 58.3875 50.5933L47.7352 52.7245C47.1445 52.8311 46.5961 53.0868 46.1109 53.4491L42.5672 56.0491C42.0188 56.4114 41.4703 55.6229 41.8289 55.1753C42.3563 54.5786 42.9047 53.9819 43.3898 53.3638C45.7734 50.4015 48.6 49.5917 52.0805 48.6114C53.3672 48.2278 54.4641 47.354 55.1391 46.1819L58.0289 41.1737C58.9992 39.4901 58.9992 37.4015 58.0289 35.7179C57.6914 35.1425 56.9742 34.9507 56.4047 35.2704C55.8352 35.6114 55.6453 36.336 55.9828 36.9114C56.5102 37.8491 56.5102 38.9999 55.9828 39.9376L53.093 44.9458C52.7133 45.6065 52.1227 46.0753 51.4055 46.2884C47.4398 47.3753 44.2758 48.4622 41.5758 51.7868L40.4156 53.1081L39.2555 51.7868C36.5555 48.4409 33.3914 47.354 29.4258 46.2884C28.7086 46.0753 28.118 45.6065 27.7383 44.9458L24.8484 39.9376C24.3211 39.0212 24.3 37.8704 24.8273 36.954L29.9742 29.3032C30.0797 29.2392 30.2063 29.2179 30.3328 29.2606L34.1508 30.1983C34.2773 30.2196 34.4039 30.3048 34.4672 30.4327L36.2602 33.4376C37.1039 34.8442 39.1711 35.1425 40.4156 34.1835C41.6602 35.1425 43.7484 34.8442 44.5711 33.4376L46.3641 30.4327C46.4273 30.3048 46.5539 30.2409 46.6805 30.1983L50.4984 29.2606C50.625 29.2392 50.7727 29.2606 50.8781 29.3245L52.7555 31.8392C53.7469 33.0753 55.5609 31.6901 54.6539 30.3901L52.6711 27.7688C52.1227 27.0442 50.7305 26.7458 49.9289 26.9376L46.1109 27.8753C45.3727 28.0458 44.7188 28.536 44.318 29.1966L42.525 32.2015C42.1875 32.777 41.4492 32.0097 41.618 31.5196L43.3688 26.1491C43.5586 25.595 43.9383 25.1261 44.4445 24.8278L50.0133 21.6737C50.6672 21.3114 51.4477 21.2901 52.1227 21.6097L62.2898 28.3229C62.7539 28.5786 63.1336 28.9622 63.4078 29.4311L70.5797 44.1786C70.6219 44.2638 70.6852 44.3704 70.7484 44.4343L74.6719 48.9311L68.0062 54.7704C67.2258 53.6196 66.1078 52.6606 64.7578 52.277Z" fill="#338E4F"></path></g><defs><clipPath id="clip0"><rect width="81" height="78" fill="white"></rect></clipPath></defs></svg>
