<svg width="81" height="78" viewBox="0 0 81 78" fill="none" xmlns="http://www.w3.org/2000/svg"><path d="M67.4564 24.459L63.8007 20.0112C63.2981 19.4019 62.9934 18.6708 62.9172 17.8787L62.3689 12.1514C62.0795 9.18118 59.7185 6.80496 56.733 6.51555L51.0057 5.96719C50.2136 5.89103 49.4825 5.58639 48.8732 5.08373L44.4254 1.42801C42.1101 -0.476005 38.7743 -0.476005 36.459 1.42801L32.0112 5.08373C31.4019 5.58639 30.6708 5.89103 29.8787 5.96719L24.1514 6.51555C21.1812 6.80496 18.805 9.16594 18.5156 12.1514L17.9672 17.8787C17.891 18.6708 17.5864 19.4019 17.0837 20.0112L13.428 24.459C11.524 26.7743 11.524 30.1101 13.428 32.4254L17.0837 36.8732C17.5864 37.4825 17.891 38.2136 17.9672 39.0057L18.5156 44.733C18.805 47.7033 21.1659 50.0795 24.1514 50.3689L27.6548 50.704L19.3229 70.5972C19.0944 71.1455 19.201 71.7548 19.5818 72.1813C19.9778 72.6231 20.5567 72.7906 21.1202 72.6383L28.3403 70.5972C28.3707 70.582 28.4012 70.5972 28.4164 70.6277L32.0265 77.2079C32.3006 77.6954 32.8033 78 33.3517 78C33.3821 78 33.3974 78 33.4278 78C34.0066 77.9695 34.5245 77.6192 34.753 77.0709L43.5572 56.0505C43.8618 55.8829 44.136 55.6849 44.4102 55.4564L48.858 51.8007C49.4216 51.3438 50.0918 51.0391 50.8077 50.9477L58.7589 69.9574L53.123 68.3733C52.0567 68.0686 50.9296 68.5408 50.3964 69.5157L47.5785 74.6337L43.8466 65.7077C43.6029 65.1136 42.9174 64.8394 42.3386 65.0832C41.7446 65.3269 41.4704 66.0123 41.7141 66.5911L46.0857 77.0556C46.3142 77.5887 46.8169 77.9543 47.4109 77.9848C47.4414 77.9848 47.4566 77.9848 47.4871 77.9848C48.0354 77.9848 48.5381 77.6954 48.8123 77.1927L52.4223 70.6124C52.4375 70.582 52.468 70.5667 52.4985 70.582L59.7185 72.6231C60.2821 72.7754 60.8761 72.6078 61.2569 72.1661C61.653 71.7244 61.7444 71.1151 61.5159 70.582L53.1991 50.6888L56.7025 50.3537C59.6728 50.0643 62.049 47.7033 62.3384 44.7178L62.8868 38.9905C62.9629 38.1984 63.2676 37.4673 63.7703 36.858L67.426 32.4102C69.3452 30.1254 69.3452 26.7743 67.4564 24.459ZM33.2755 74.6337L30.4576 69.5005C29.9244 68.5256 28.7972 68.0534 27.731 68.3581L22.0951 69.9422L30.0463 50.9325C30.7622 51.0391 31.4324 51.3285 31.996 51.7855L36.4438 55.4412C37.6014 56.3856 39.018 56.873 40.4346 56.873C40.526 56.873 40.6174 56.873 40.7088 56.873L33.2755 74.6337ZM65.659 30.9631L62.0033 35.4109C61.2113 36.3706 60.7238 37.5434 60.602 38.7925L60.0536 44.5198C59.8708 46.3933 58.3781 47.8861 56.5045 48.0688L51.4779 48.5563C51.4627 48.5563 51.4322 48.5563 51.417 48.5563L50.7772 48.6172C49.5282 48.7391 48.3553 49.2265 47.3957 50.0186L42.9479 53.6743C41.4856 54.8776 39.3836 54.8776 37.9213 53.6743L33.4735 50.0186C32.5139 49.2265 31.341 48.7391 30.092 48.6172L29.4522 48.5563C29.437 48.5563 29.4218 48.5563 29.4065 48.5563L24.3647 48.0688C22.4911 47.8861 20.9984 46.3933 20.8156 44.5198L20.2672 38.7925C20.1454 37.5434 19.658 36.3706 18.8659 35.4109L15.2102 30.9631C14.0068 29.5009 14.0068 27.3988 15.2102 25.9365L18.8659 21.4888C19.658 20.5291 20.1454 19.3562 20.2672 18.1072L20.8156 12.3799C20.9984 10.5064 22.4911 9.01362 24.3647 8.83084L30.092 8.28248C31.341 8.16062 32.5139 7.67319 33.4735 6.88112L37.9213 3.22541C38.6524 2.63135 39.5359 2.32671 40.4346 2.32671C41.3333 2.32671 42.2168 2.63135 42.9479 3.22541L47.3957 6.88112C48.3553 7.67319 49.5282 8.16062 50.7772 8.28248L56.5045 8.83084C58.3781 9.01362 59.8708 10.5064 60.0536 12.3799L60.602 18.1072C60.7238 19.3562 61.2113 20.5291 62.0033 21.4888L65.659 25.9365C66.8624 27.3836 66.8624 29.5009 65.659 30.9631Z" fill="#CBCBCB"></path><path d="M40.4346 10.3845C39.6578 10.3845 38.8809 10.4302 38.1193 10.5368C37.4796 10.613 37.0378 11.1918 37.114 11.8316C37.1902 12.4713 37.769 12.9131 38.4087 12.8369C39.079 12.7455 39.7492 12.715 40.4194 12.715C49.1017 12.715 56.1694 19.7828 56.1694 28.4651C56.1694 37.1474 49.1017 44.2151 40.4194 44.2151C31.7371 44.2151 24.6694 37.1474 24.6694 28.4651C24.6694 22.2656 28.3251 16.6297 33.9762 14.0859C34.555 13.827 34.814 13.1415 34.555 12.5627C34.2961 11.9839 33.6106 11.725 33.0318 11.9839C26.5429 14.8932 22.3541 21.3669 22.3541 28.4651C22.3541 38.4269 30.4576 46.5304 40.4194 46.5304C50.3812 46.5304 58.4847 38.4269 58.4847 28.4651C58.4999 18.488 50.3964 10.3845 40.4346 10.3845Z" fill="#338E4F"></path><path d="M28.9496 27.1095C27.5787 28.4956 27.5787 30.7347 28.9496 32.1056L34.0066 37.1627C34.6768 37.8329 35.5603 38.1985 36.5047 38.1985C37.4491 38.1985 38.3326 37.8329 39.0028 37.1627L50.0308 26.1346C51.417 24.7485 51.417 22.5094 50.0308 21.1385C48.6447 19.7523 46.4056 19.7523 45.0347 21.1385L36.5047 29.6685L33.9457 27.1095C32.5596 25.7233 30.3205 25.7233 28.9496 27.1095ZM36.4895 32.4407C36.7941 32.4407 37.0835 32.3189 37.312 32.1056L46.6493 22.7683C47.1215 22.2961 47.8984 22.2961 48.3858 22.7683C48.858 23.2405 48.858 24.0173 48.3858 24.5048L37.3577 35.5328C37.1292 35.7613 36.8246 35.8984 36.4895 35.8984C36.1696 35.8984 35.8497 35.7766 35.6212 35.5328L30.5642 30.4758C30.092 30.0036 30.092 29.2267 30.5642 28.7393C30.8079 28.4956 31.1125 28.3737 31.4324 28.3737C31.7523 28.3737 32.0569 28.4956 32.3006 28.7241L35.6669 32.0904C35.8954 32.3189 36.1848 32.4407 36.4895 32.4407Z" fill="#338E4F"></path></svg>
